<svg xmlns="http://www.w3.org/2000/svg" viewBox="0 0 259.37 259.58"><defs><style>.cls-1{fill:#09c;}.cls-2{fill:#fff;}</style></defs><title>on_track_background</title><g id="Capa_2" data-name="Capa 2"><g id="Capa_1-2" data-name="Capa 1"><rect class="cls-1" width="259.37" height="259.58"/><g id="SvgjsG1007"><path class="cls-2" d="M86.27,119l-15.5,7.52L86.27,134l9-4.18v5.69c0,3,3.27,3,3.27,3V137s-1.64-.09-1.64-1.5V129l4.9-2.49Z"/><path class="cls-2" d="M78.93,132.48v3a2.67,2.67,0,0,0,1.63,2.25L86.27,140l4.9-2.26c1.1-.51,2.53-1.51,2.45-2.25v-3l-7.35,3.29Z"/></g><g id="SvgjsG1008"><path class="cls-2" d="M115.9,136.81c-4.3,0-7.79-3.12-7.79-7.18s3.49-7.18,7.79-7.18,7.8,3.11,7.8,7.18S120.21,136.81,115.9,136.81Zm0-3.08a4.11,4.11,0,1,0-4.36-4.1A4.1,4.1,0,0,0,115.9,133.73Zm15.62-7.34c2,0,3.42,1.42,3.42,3.89V136a.46.46,0,0,1-.53.49h-2.15a.46.46,0,0,1-.53-.49v-5.51a1.31,1.31,0,0,0-1.44-1.42c-1,0-1.56.5-1.56,1.66V136a.46.46,0,0,1-.53.49h-2.15a.46.46,0,0,1-.53-.49v-8.88a.46.46,0,0,1,.53-.49h2.15a.46.46,0,0,1,.53.49v.41A3.27,3.27,0,0,1,131.52,126.39Zm14.28-3.67a.47.47,0,0,1,.53.5v2a.46.46,0,0,1-.53.49h-2.89V136c0,.31-.19.49-.54.49H140c-.35,0-.54-.18-.54-.49V125.76h-2.89a.46.46,0,0,1-.53-.49v-2a.47.47,0,0,1,.53-.5h9.21Zm7.37,3.79a.44.44,0,0,1,.55.47v2.33c0,.32-.15.47-.43.47a2,2,0,0,0-2.35,2.1V136c0,.31-.19.49-.54.49h-2.14a.46.46,0,0,1-.53-.49v-8.88a.46.46,0,0,1,.53-.49h2.14c.35,0,.54.18.54.49v1.07A2.56,2.56,0,0,1,153.17,126.51Zm6.38-.12c2.35,0,4.45,1.26,4.45,3.93V136a.46.46,0,0,1-.53.49h-2.06a.47.47,0,0,1-.54-.49v-.28a3.54,3.54,0,0,1-2.76,1.05c-1.88,0-3.53-1-3.53-3.08s1.65-3.08,3.53-3.08a4.6,4.6,0,0,1,2.76.75v-.89c0-1-.42-1.4-1.32-1.4a1.27,1.27,0,0,0-1.24.58c-.13.27-.24.43-.56.43h-2.1c-.34,0-.56-.18-.54-.51.28-2.13,2.25-3.22,4.44-3.22Zm-.3,8.33c1.05,0,1.62-.42,1.62-1s-.57-1-1.62-1-1.46.42-1.46,1S158.26,134.72,159.25,134.72ZM176,132.78c.36,0,.57.22.45.55a5.38,5.38,0,0,1-5.27,3.48c-3.26,0-5.68-2.27-5.68-5.21s2.42-5.21,5.68-5.21a5.38,5.38,0,0,1,5.27,3.47c.12.34-.09.56-.45.56h-2.36a.76.76,0,0,1-.64-.34,2.28,2.28,0,0,0-1.82-.77,2.3,2.3,0,1,0,0,4.58,2.33,2.33,0,0,0,1.82-.75.71.71,0,0,1,.64-.36Zm11.69,3.16c.26.33.11.59-.32.59H185a.73.73,0,0,1-.65-.32l-3-4V136a.47.47,0,0,1-.54.49h-2.14a.47.47,0,0,1-.54-.49V123.22a.47.47,0,0,1,.54-.5h2.14a.47.47,0,0,1,.54.5V131l2.76-4a.73.73,0,0,1,.64-.31h2.46c.43,0,.58.25.35.59l-3.15,4.34Z"/></g></g></g></svg>