<?xml version="1.0" encoding="utf-8"?>
<!-- Generator: Adobe Illustrator 24.0.2, SVG Export Plug-In . SVG Version: 6.00 Build 0)  -->
<svg version="1.1" id="Capa_1" xmlns="http://www.w3.org/2000/svg" xmlns:xlink="http://www.w3.org/1999/xlink" x="0px" y="0px"
	 viewBox="0 0 259.4 259.6" style="enable-background:new 0 0 259.4 259.6;" xml:space="preserve">
<style type="text/css">
	.st0{fill:#004D67;}
	.st1{fill:#FFFFFF;}
</style>
<title>on_track_background</title>
<g id="Capa_2_1_">
	<g id="Capa_1-2">
		<rect y="0" class="st0" width="259.4" height="259.6"/>
		<g id="SvgjsG1007">
			<path class="st1" d="M86.3,119l-15.5,7.5l15.5,7.5l9-4.2v5.7c0,3,3.3,3,3.3,3V137c0,0-1.6-0.1-1.6-1.5V129l4.9-2.5L86.3,119z"/>
			<path class="st1" d="M78.9,132.5v3c0.1,1,0.7,1.9,1.6,2.2l5.7,2.3l4.9-2.3c1.1-0.5,2.5-1.5,2.4-2.2v-3l-7.3,3.3L78.9,132.5z"/>
		</g>
		<g id="SvgjsG1008">
			<path class="st1" d="M115.9,136.8c-4.3,0-7.8-3.1-7.8-7.2c0-4.1,3.5-7.2,7.8-7.2s7.8,3.1,7.8,7.2S120.2,136.8,115.9,136.8z
				 M115.9,133.7c2.3-0.1,4-2.1,3.9-4.4c-0.1-2.3-2.1-4-4.4-3.9c-2.2,0.1-3.9,1.9-3.9,4.1c0,2.3,1.8,4.1,4.1,4.1
				C115.7,133.7,115.8,133.7,115.9,133.7z M131.5,126.4c2,0,3.4,1.4,3.4,3.9v5.7c0,0.3-0.2,0.5-0.4,0.5c0,0-0.1,0-0.1,0h-2.1
				c-0.3,0-0.5-0.1-0.5-0.4c0,0,0-0.1,0-0.1v-5.5c0.1-0.7-0.5-1.4-1.2-1.4c-0.1,0-0.2,0-0.3,0c-1,0-1.6,0.5-1.6,1.7v5.3
				c0,0.3-0.2,0.5-0.4,0.5c0,0-0.1,0-0.1,0h-2.2c-0.3,0-0.5-0.1-0.5-0.4c0,0,0-0.1,0-0.1v-8.9c0-0.3,0.2-0.5,0.4-0.5
				c0,0,0.1,0,0.1,0h2.2c0.3,0,0.5,0.1,0.5,0.4c0,0,0,0.1,0,0.1v0.4C129.4,126.7,130.5,126.3,131.5,126.4z M145.8,122.7
				c0.3,0,0.5,0.1,0.5,0.4c0,0,0,0.1,0,0.1v2c0,0.3-0.2,0.5-0.4,0.5c0,0-0.1,0-0.1,0h-2.9V136c0,0.3-0.2,0.5-0.5,0.5H140
				c-0.4,0-0.5-0.2-0.5-0.5v-10.2h-2.9c-0.3,0-0.5-0.1-0.5-0.4c0,0,0-0.1,0-0.1v-2c0-0.3,0.2-0.5,0.4-0.5c0,0,0.1,0,0.1,0
				L145.8,122.7L145.8,122.7z M153.2,126.5c0.2-0.1,0.5,0.1,0.5,0.3c0,0.1,0,0.1,0,0.2v2.3c0,0.3-0.1,0.5-0.4,0.5
				c-1.1-0.2-2.1,0.5-2.3,1.6c0,0.2,0,0.3,0,0.5v4.1c0,0.3-0.2,0.5-0.5,0.5h-2.1c-0.3,0-0.5-0.1-0.5-0.4c0,0,0-0.1,0-0.1v-8.9
				c0-0.3,0.2-0.5,0.4-0.5c0,0,0.1,0,0.1,0h2.1c0.4,0,0.5,0.2,0.5,0.5v1.1C151.3,127.2,152.2,126.6,153.2,126.5z M159.6,126.4
				c2.4,0,4.4,1.3,4.4,3.9v5.7c0,0.3-0.2,0.5-0.4,0.5c0,0-0.1,0-0.1,0h-2.1c-0.3,0-0.5-0.1-0.5-0.4c0,0,0-0.1,0-0.1v-0.3
				c-0.7,0.7-1.7,1.1-2.8,1.1c-1.9,0-3.5-1-3.5-3.1s1.6-3.1,3.5-3.1c1,0,1.9,0.2,2.8,0.8v-0.9c0-1-0.4-1.4-1.3-1.4
				c-0.5-0.1-1,0.2-1.2,0.6c-0.1,0.3-0.2,0.4-0.6,0.4h-2.1c-0.3,0-0.6-0.2-0.5-0.5C155.4,127.4,157.4,126.3,159.6,126.4L159.6,126.4
				z M159.2,134.7c1.1,0,1.6-0.4,1.6-1s-0.6-1-1.6-1s-1.5,0.4-1.5,1S158.3,134.7,159.2,134.7z M176,132.8c0.4,0,0.6,0.2,0.4,0.6
				c-0.8,2.2-2.9,3.6-5.3,3.5c-3.3,0-5.7-2.3-5.7-5.2s2.4-5.2,5.7-5.2c2.3-0.1,4.4,1.3,5.3,3.5c0.1,0.3-0.1,0.6-0.4,0.6h-2.4
				c-0.3,0-0.5-0.1-0.6-0.3c-0.5-0.5-1.1-0.8-1.8-0.8c-1.3-0.1-2.4,0.8-2.5,2.1c-0.1,1.3,0.8,2.4,2.1,2.5c0.1,0,0.3,0,0.4,0
				c0.7,0,1.4-0.2,1.8-0.8c0.1-0.2,0.4-0.4,0.6-0.4L176,132.8z M187.7,135.9c0.3,0.3,0.1,0.6-0.3,0.6H185c-0.3,0-0.5-0.1-0.6-0.3
				l-3-4v3.8c0,0.3-0.2,0.5-0.4,0.5c0,0-0.1,0-0.1,0h-2.1c-0.3,0-0.5-0.1-0.5-0.4c0,0,0-0.1,0-0.1v-12.8c0-0.3,0.2-0.5,0.4-0.5
				c0,0,0.1,0,0.1,0h2.1c0.3,0,0.5,0.1,0.5,0.4c0,0,0,0.1,0,0.1v7.8l2.8-4c0.1-0.2,0.4-0.3,0.6-0.3h2.5c0.4,0,0.6,0.2,0.4,0.6
				l-3.1,4.3L187.7,135.9z"/>
		</g>
	</g>
</g>
</svg>
