<?xml version="1.0" encoding="utf-8"?>
<!-- Generator: Adobe Illustrator 24.0.2, SVG Export Plug-In . SVG Version: 6.00 Build 0)  -->
<svg version="1.1" id="Capa_1" xmlns="http://www.w3.org/2000/svg" xmlns:xlink="http://www.w3.org/1999/xlink" x="0px" y="0px"
	 viewBox="0 0 512 512" style="enable-background:new 0 0 512 512;" xml:space="preserve">
<style type="text/css">
	.st0{fill:#FFFFFF;}
</style>
<g>
	<g>
		<path class="st0" d="M437,268.2h-50.1c-6.8,0-13.4,0.9-19.7,2.6c-12.4-24.4-37.7-41.1-66.9-41.1h-88.6
			c-29.2,0-54.5,16.7-66.9,41.1c-6.3-1.7-12.9-2.6-19.7-2.6H75c-41.4,0-75,33.6-75,75v80.1c0,24.8,20.2,45,45,45h422
			c24.8,0,45-20.2,45-45v-80.1C512,301.8,478.4,268.2,437,268.2z M136.7,304.7v133.6H45c-8.3,0-15-6.7-15-15v-80.1
			c0-24.8,20.2-45,45-45h50.1c4.1,0,8,0.6,11.8,1.6C136.8,301.4,136.7,303,136.7,304.7z M345.3,438.3H166.7V304.7
			c0-24.8,20.2-45,45-45h88.6c24.8,0,45,20.2,45,45V438.3z M482,423.3c0,8.3-6.7,15-15,15h-91.7V304.7c0-1.7-0.1-3.3-0.2-5
			c3.8-1,7.7-1.6,11.8-1.6H437c24.8,0,45,20.2,45,45V423.3z"/>
	</g>
</g>
<g>
	<g>
		<path class="st0" d="M100.1,126.5c-36.7,0-66.6,29.9-66.6,66.6c0,36.7,29.9,66.6,66.6,66.6c36.7,0,66.6-29.9,66.6-66.6
			S136.8,126.5,100.1,126.5z M100.1,229.8c-20.2,0-36.6-16.4-36.6-36.6s16.4-36.6,36.6-36.6s36.6,16.4,36.6,36.6
			S120.3,229.8,100.1,229.8z"/>
	</g>
</g>
<g>
	<g>
		<path class="st0" d="M256,43.7c-49.1,0-89,39.9-89,89s39.9,89,89,89s89-39.9,89-89C345,83.7,305.1,43.7,256,43.7z M256,191.8
			c-32.6,0-59-26.5-59-59c0-32.6,26.5-59,59-59s59,26.5,59,59S288.6,191.8,256,191.8z"/>
	</g>
</g>
<g>
	<g>
		<path class="st0" d="M411.9,126.5c-36.7,0-66.6,29.9-66.6,66.6c0,36.7,29.9,66.6,66.6,66.6c36.7,0,66.6-29.9,66.6-66.6
			S448.7,126.5,411.9,126.5z M411.9,229.8c-20.2,0-36.6-16.4-36.6-36.6c0-20.2,16.4-36.6,36.6-36.6c20.2,0,36.6,16.4,36.6,36.6
			S432.1,229.8,411.9,229.8z"/>
	</g>
</g>
</svg>
