<svg xmlns="http://www.w3.org/2000/svg" viewBox="0 0 444.31 494.93"><defs><style>.cls-1{fill:#fff;}</style></defs><title>asistencia</title><g id="Capa_2" data-name="Capa 2"><g id="Layer_1" data-name="Layer 1"><path class="cls-1" d="M442,151.89,385.71,309.76h-.85c0-9.39-2.56-20.48-9.39-27.31-6-6-16.21-14.5-30.72-23l1.71-3.41,57.17-120.32c4.27-10.24,14.51-16.21,28.16-12S446.3,138.24,442,151.89ZM256.86,238.08v.85a298.57,298.57,0,0,0-51.2,6.83V25.6a25.6,25.6,0,0,1,51.2,0Zm-103.25-157,30.72,170.66c-29.87,9.39-46.94,21.34-46.94,21.34L103.26,89.6a25.94,25.94,0,0,1,20.48-29.87C138.25,58,151.05,67.41,153.61,81.07Zm184.32-38.4a25.49,25.49,0,0,1,20.48,29.86L327.69,246.61,326,250a192.87,192.87,0,0,0-49.49-11.1v-2.56L308.06,63.15C310.62,49.49,324.27,41,337.93,42.67Z"/><path class="cls-1" d="M184.33,251.73c6.95-2.18,13.65-4.26,21.33-6a298.57,298.57,0,0,1,51.2-6.83h19.63A140.89,140.89,0,0,1,326,250c6.83,2.56,12.8,6,18.77,8.53,14.51,7.68,25.6,17.07,30.72,23,6.83,6.83,9.39,17.92,9.39,27.31,0,2.56,0,5.12-.85,6.82,0,0-25.6,119.47-34.14,145.07s-17.06,34.13-34.13,34.13H170.67c-17.06,0-34.13-25.6-34.13-25.6L6,260.27c-6-9.39-9.39-16.22-.85-24.75C23.05,217.6,50.35,227,68.27,247.47l68.27,76.8v-51.2h0C137.39,273.07,154.46,261.12,184.33,251.73Z"/></g></g></svg>