<?xml version="1.0" encoding="utf-8"?>
<!-- Generator: Adobe Illustrator 24.0.2, SVG Export Plug-In . SVG Version: 6.00 Build 0)  -->
<svg version="1.1" id="Capa_1" xmlns="http://www.w3.org/2000/svg" xmlns:xlink="http://www.w3.org/1999/xlink" x="0px" y="0px"
	 viewBox="0 0 512 512" style="enable-background:new 0 0 512 512;" xml:space="preserve">
<style type="text/css">
	.st0{fill:#FFFFFF;}
</style>
<g>
	<path class="st0" d="M511.2,458.9l-29.5-142l29.5-142c2.4-11.6-0.7-26.1-9.9-37.1c-5.2-6.2-11.9-10.7-19.3-13.3V45.1
		c0-24.8-20.2-45-45-45H76.1c-24.8,0-45,20.2-45,45v79.2C9,131.5-3.4,154.6,0.8,175l29.5,142c0,0-29.6,142.4-29.6,142.6
		c-2.2,13.1,1.5,26.4,10,36.5c8.6,10.1,21.1,15.9,34.3,15.9h421.8c13.2,0,25.8-5.8,34.3-15.9s12.2-23.4,10-36.5
		C511.3,459.3,511.2,459.1,511.2,458.9L511.2,458.9z M76.1,30.1H437c8.3,0,15,6.7,15,15v77H61.1v-77C61.1,36.8,67.8,30.1,76.1,30.1z
		 M478.4,476.6c-2.9,3.4-7,5.3-11.4,5.3H45.1c-4.5,0-8.5-1.9-11.4-5.3c-2.8-3.4-4-7.6-3.4-11.9L57.9,332h47.8c8.3,0,15-6.7,15-15
		c0-8.3-6.7-15-15-15H57.9L30.3,169.2c-0.7-4.3,0.5-8.6,3.4-11.9c2.9-3.4,7-5.3,11.4-5.3h421.8c4.5,0,8.5,1.9,11.4,5.3
		c2.8,3.4,4,7.6,3.4,11.9L454.2,302h-47.8c-8.3,0-15,6.7-15,15c0,8.3,6.7,15,15,15h47.8l27.6,132.7
		C482.4,469,481.2,473.3,478.4,476.6L478.4,476.6z"/>
	<circle class="st0" cx="106.1" cy="75.1" r="15"/>
	<circle class="st0" cx="407" cy="75.1" r="15"/>
	<path class="st0" d="M257,272c0-33.1-26.9-60-60-60c-25.4,0-48.1,16.1-56.6,40c-2.8,7.8,1.3,16.4,9.1,19.1
		c7.8,2.8,16.4-1.3,19.1-9.1c4.2-12,15.6-20,28.3-20c16.5,0,30,13.5,30,30s-13.5,30-30,30h-18.6c-8.3,0-15,6.7-15,15
		c0,8.3,6.7,15,15,15H197c16.5,0,30,13.5,30,30s-13.5,30-30,30c-12.7,0-24.1-8-28.3-20c-2.8-7.8-11.3-11.9-19.1-9.1
		c-7.8,2.8-11.9,11.3-9.1,19.1c8.5,23.9,31.2,40,56.6,40c33.1,0,60-26.9,60-60c0-17.9-7.9-34-20.3-45C249.1,306,257,289.9,257,272z"
		/>
	<path class="st0" d="M353.1,213.8c-4.9-2.6-10.8-2.3-15.4,0.7l-45,30c-6.9,4.6-8.8,13.9-4.2,20.8c4.6,6.9,13.9,8.8,20.8,4.2
		L331,255v151.9c0,8.3,6.7,15,15,15c8.3,0,15-6.7,15-15V227C361,221.5,357.9,216.4,353.1,213.8L353.1,213.8z"/>
</g>
</svg>
