<?xml version="1.0" encoding="utf-8"?>
<!-- Generator: Adobe Illustrator 24.0.2, SVG Export Plug-In . SVG Version: 6.00 Build 0)  -->
<svg version="1.1" id="regular" xmlns="http://www.w3.org/2000/svg" xmlns:xlink="http://www.w3.org/1999/xlink" x="0px" y="0px"
	 viewBox="0 0 512 512" style="enable-background:new 0 0 512 512;" xml:space="preserve">
<style type="text/css">
	.st0{fill:#FFFFFF;}
</style>
<path class="st0" d="M496,192H293.3c-8.8,0-16-7.2-16-16s7.2-16,16-16H496c8.8,0,16,7.2,16,16C512,184.8,504.8,192,496,192z"/>
<path class="st0" d="M496,256H293.3c-8.8,0-16-7.2-16-16s7.2-16,16-16H496c8.8,0,16,7.2,16,16S504.8,256,496,256z"/>
<path class="st0" d="M496,320H293.3c-8.8,0-16-7.2-16-16s7.2-16,16-16H496c8.8,0,16,7.2,16,16S504.8,320,496,320z"/>
<path class="st0" d="M496,384H293.3c-8.8,0-16-7.2-16-16s7.2-16,16-16H496c8.8,0,16,7.2,16,16S504.8,384,496,384z"/>
<path class="st0" d="M496,448H293.3c-8.8,0-16-7.2-16-16c0-8.8,7.2-16,16-16H496c8.8,0,16,7.2,16,16C512,440.8,504.8,448,496,448z"
	/>
<path class="st0" d="M197.3,320h-160C16.7,320,0,303.3,0,282.7v-85.3C0,176.7,16.7,160,37.3,160h160c20.6,0,37.3,16.7,37.3,37.3
	v85.3C234.7,303.3,217.9,320,197.3,320z M37.3,192c-2.9,0-5.3,2.4-5.3,5.3v85.3c0,2.9,2.4,5.3,5.3,5.3h160c2.9,0,5.3-2.4,5.3-5.3
	v-85.3c0-2.9-2.4-5.3-5.3-5.3H37.3z"/>
<path class="st0" d="M197.3,512h-160C16.7,512,0,495.3,0,474.7v-85.3C0,368.7,16.7,352,37.3,352h160c20.6,0,37.3,16.7,37.3,37.3
	v85.3C234.7,495.3,217.9,512,197.3,512z M37.3,384c-2.9,0-5.3,2.4-5.3,5.3v85.3c0,2.9,2.4,5.3,5.3,5.3h160c2.9,0,5.3-2.4,5.3-5.3
	v-85.3c0-2.9-2.4-5.3-5.3-5.3H37.3z"/>
<path class="st0" d="M496,512H293.3c-8.8,0-16-7.2-16-16c0-8.8,7.2-16,16-16H496c8.8,0,16,7.2,16,16C512,504.8,504.8,512,496,512z"
	/>
<path class="st0" d="M474.7,128H208c-20.6,0-37.3-16.7-37.3-37.3V37.3C170.7,16.7,187.4,0,208,0h266.7C495.3,0,512,16.7,512,37.3
	v53.3C512,111.3,495.3,128,474.7,128z M208,32c-2.9,0-5.3,2.4-5.3,5.3v53.3c0,2.9,2.4,5.3,5.3,5.3h266.7c2.9,0,5.3-2.4,5.3-5.3V37.3
	c0-2.9-2.4-5.3-5.3-5.3H208z"/>
<path class="st0" d="M64,128C28.7,128,0,99.3,0,64S28.7,0,64,0s64,28.7,64,64S99.3,128,64,128z M64,32c-17.6,0-32,14.4-32,32
	s14.4,32,32,32s32-14.4,32-32S81.6,32,64,32z"/>
</svg>
