<svg xmlns="http://www.w3.org/2000/svg" viewBox="0 0 512 512"><defs><style>.cls-1{fill:#fff;}</style></defs><title>curso</title><g id="Capa_2" data-name="Capa 2"><g id="Capa_1-2" data-name="Capa 1"><path class="cls-1" d="M385.42,110H241.62c-16.34,0-30.16,12.82-30.61,29.16A30,30,0,0,0,241,170H341v62H481V170a60,60,0,0,0-54.88-59.77,45,45,0,1,0-40.7-.23Z"/><path class="cls-1" d="M15,180H196.33A60,60,0,0,1,241,80h29V15A15,15,0,0,0,255,0H15A15,15,0,0,0,0,15V165A15,15,0,0,0,15,180Z"/><path class="cls-1" d="M272.5,417.85a45,45,0,1,0-33,0A75.12,75.12,0,0,0,181,491v7.77A13.23,13.23,0,0,0,194.24,512H317.76A13.24,13.24,0,0,0,331,498.77V491a75.12,75.12,0,0,0-58.5-73.15Z"/><path class="cls-1" d="M92.5,417.85a45,45,0,1,0-33,0A75.12,75.12,0,0,0,1,491v7.77A13.24,13.24,0,0,0,14.23,512H137.76A13.24,13.24,0,0,0,151,498.77V491A75.12,75.12,0,0,0,92.5,417.85Z"/><path class="cls-1" d="M497,262H15A15,15,0,0,0,0,277V418.67a105.44,105.44,0,0,1,9.14-8.55,75,75,0,1,1,133.72,0A103.55,103.55,0,0,1,166,437a103.49,103.49,0,0,1,8.41-12,105,105,0,0,1,14.73-14.86,75,75,0,1,1,133.72,0A103.55,103.55,0,0,1,346,437a103.49,103.49,0,0,1,8.41-12,105,105,0,0,1,14.73-14.86,75,75,0,1,1,133.72,0,103.91,103.91,0,0,1,9.14,8.55V277a15,15,0,0,0-15-15Z"/><path class="cls-1" d="M452.5,417.85a45,45,0,1,0-33,0A75.12,75.12,0,0,0,361,491v7.77A13.23,13.23,0,0,0,374.23,512H497.76A13.24,13.24,0,0,0,511,498.77V491a75.12,75.12,0,0,0-58.5-73.15Z"/></g></g></svg>