<?xml version="1.0" encoding="utf-8"?>
<!-- Generator: Adobe Illustrator 24.0.2, SVG Export Plug-In . SVG Version: 6.00 Build 0)  -->
<svg version="1.1" id="_x31_" xmlns="http://www.w3.org/2000/svg" xmlns:xlink="http://www.w3.org/1999/xlink" x="0px" y="0px"
	 viewBox="0 0 512 512" style="enable-background:new 0 0 512 512;" xml:space="preserve">
<style type="text/css">
	.st0{fill:#FFFFFF;}
</style>
<path class="st0" d="M373.3,512c-76.5,0-138.7-62.2-138.7-138.7s62.2-138.7,138.7-138.7S512,296.9,512,373.3S449.8,512,373.3,512z
	 M373.3,256C308.7,256,256,308.7,256,373.3s52.7,117.3,117.3,117.3S490.7,438,490.7,373.3S438,256,373.3,256z"/>
<path class="st0" d="M437.3,384c-2.7,0-5.5-1-7.6-3.1l-56.4-56.5l-56.4,56.4c-4.2,4.2-10.9,4.2-15.1,0c-4.2-4.2-4.2-10.9,0-15.1
	l64-64c4.2-4.2,10.9-4.2,15.1,0l64,64c4.2,4.2,4.2,10.9,0,15.1C442.8,383,440.1,384,437.3,384z"/>
<path class="st0" d="M373.3,448c-5.9,0-10.7-4.8-10.7-10.7v-128c0-5.9,4.8-10.7,10.7-10.7s10.7,4.8,10.7,10.7v128
	C384,443.2,379.2,448,373.3,448z"/>
<path class="st0" d="M202.7,448H53.3C23.9,448,0,424.1,0,394.7V117.3C0,87.9,23.9,64,53.3,64H96c5.9,0,10.7,4.8,10.7,10.7
	S101.9,85.3,96,85.3H53.3c-17.6,0-32,14.4-32,32v277.3c0,17.6,14.4,32,32,32h149.3c5.9,0,10.7,4.8,10.7,10.7S208.6,448,202.7,448z"
	/>
<path class="st0" d="M245.3,128h-128c-17.6,0-32-14.4-32-32V53.3c0-5.9,4.8-10.7,10.7-10.7h33.1C134,18.3,155.6,0,181.3,0
	s47.3,18.3,52.3,42.7h33.1c5.9,0,10.7,4.8,10.7,10.7V96C277.3,113.6,263,128,245.3,128z M106.7,64v32c0,5.9,4.8,10.7,10.7,10.7h128
	c5.9,0,10.7-4.8,10.7-10.7V64h-32c-5.9,0-10.7-4.8-10.7-10.7c0-17.6-14.4-32-32-32s-32,14.4-32,32c0,5.9-4.8,10.7-10.7,10.7H106.7z"
	/>
<path class="st0" d="M288,192H74.7c-5.9,0-10.7-4.8-10.7-10.7s4.8-10.7,10.7-10.7H288c5.9,0,10.7,4.8,10.7,10.7S293.9,192,288,192z"
	/>
<path class="st0" d="M224,256H74.7c-5.9,0-10.7-4.8-10.7-10.7s4.8-10.7,10.7-10.7H224c5.9,0,10.7,4.8,10.7,10.7S229.9,256,224,256z"
	/>
<path class="st0" d="M181.3,320H74.7c-5.9,0-10.7-4.8-10.7-10.7s4.8-10.7,10.7-10.7h106.7c5.9,0,10.7,4.8,10.7,10.7
	S187.2,320,181.3,320z"/>
<path class="st0" d="M352,192c-5.9,0-10.7-4.8-10.7-10.7v-64c0-17.6-14.4-32-32-32h-42.7c-5.9,0-10.7-4.8-10.7-10.7
	S260.8,64,266.7,64h42.7c29.4,0,53.3,23.9,53.3,53.3v64C362.7,187.2,357.9,192,352,192z"/>
</svg>
