<svg xmlns="http://www.w3.org/2000/svg" viewBox="0 0 469.33 512"><defs><style>.cls-1{fill:#fff;}</style></defs><title>logout_icon</title><g id="Capa_2" data-name="Capa 2"><g id="Layer_1" data-name="Layer 1"><path class="cls-1" d="M328.52,62.2a21.33,21.33,0,1,0-17.08,39.09,192.05,192.05,0,0,1,115.23,176c0,106-86,192-192,192s-192-86-192-192a192.09,192.09,0,0,1,115.19-176,21.33,21.33,0,1,0-17.1-39.09A234.75,234.75,0,0,0,0,277.33C0,406.93,105.06,512,234.67,512S469.33,406.93,469.33,277.33A234.68,234.68,0,0,0,328.52,62.2Z"/><path class="cls-1" d="M234.66,234.67A21.33,21.33,0,0,0,256,213.33v-192a21.33,21.33,0,0,0-42.66,0v192A21.33,21.33,0,0,0,234.66,234.67Z"/></g></g></svg>