<svg xmlns="http://www.w3.org/2000/svg" viewBox="0 0 410 512"><defs><style>.cls-1{fill:#fff;}</style></defs><title>notas</title><g id="Capa_2" data-name="Capa 2"><g id="Layer_1" data-name="Layer 1"><path class="cls-1" d="M314.14,9.22v96.56h87.51Z"/><path class="cls-1" d="M299.14,135.78a15,15,0,0,1-15-15V0h-241A43.16,43.16,0,0,0,0,43.12V468.88A43.16,43.16,0,0,0,43.12,512H366.88A43.16,43.16,0,0,0,410,468.88V135.78ZM286.31,207.2a15,15,0,0,1,21.22,0L316.3,216l31.47-31.46A15,15,0,0,1,369,205.73L326.91,247.8a15,15,0,0,1-21.21,0l-19.38-19.38a15,15,0,0,1,0-21.22Zm0,102a15,15,0,0,1,21.22,0L316.3,318l31.47-31.46A15,15,0,0,1,369,307.74l-42.07,42.07a15,15,0,0,1-21.21,0l-19.38-19.38a15,15,0,0,1,0-21.21ZM73.56,51h47a15,15,0,0,1,0,30H73.56a15,15,0,0,1,0-30Zm0,52.1H175.61a15,15,0,0,1,0,30H73.56a15,15,0,0,1,0-30ZM228.48,435.25H73.56a15,15,0,0,1,0-30H228.48a15,15,0,1,1,0,30Zm0-98.48H73.56a15,15,0,0,1,0-30H228.48a15,15,0,1,1,0,30Zm0-102H73.56a15,15,0,0,1,0-30H228.48a15,15,0,1,1,0,30ZM369,406.22l-42.07,42.07a15,15,0,0,1-21.21,0L286.32,428.9a15,15,0,1,1,21.21-21.21l8.78,8.78L347.77,385A15,15,0,0,1,369,406.22Z"/></g></g></svg>