<svg id="gaegdagd" xmlns="http://www.w3.org/2000/svg" viewBox="0 0 370 72.21"><defs><style>.cls-1{fill:#fff;}</style></defs><title>OnTrack</title><g id="SvgjsG1007"><path class="cls-1" d="M49,0,0,25.79,49,51.58,77.37,37.23v19.5c0,10.32,10.31,10.32,10.31,10.32V61.89s-5.15-.29-5.15-5.16V34.33L98,25.79Z" transform="translate(0 0)"/><path class="cls-1" d="M25.79,46.42V56.74A9.15,9.15,0,0,0,31,64.47L49,72.21l15.47-7.74c3.49-1.74,8-5.18,7.74-7.74V46.42L49,57.7Z" transform="translate(0 0)"/></g><g id="SvgjsG1008"><path class="cls-1" d="M142.63,61.26A24.42,24.42,0,0,1,118,36.63a24.63,24.63,0,1,1,49.26,0A24.42,24.42,0,0,1,142.63,61.26Zm0-10.55c7.72,0,13.81-5.62,13.81-14.08s-6.09-14.07-13.81-14.07-13.8,5.61-13.8,14.07S134.92,50.71,142.63,50.71ZM192,25.53c6.3,0,10.83,4.88,10.83,13.34V58.63a1.53,1.53,0,0,1-1.69,1.69h-6.77a1.53,1.53,0,0,1-1.69-1.69V39.75c0-3.39-2-4.88-4.53-4.88-3.05,0-4.94,1.69-4.94,5.69V58.63a1.53,1.53,0,0,1-1.69,1.69h-6.77A1.53,1.53,0,0,1,173,58.63V28.17a1.53,1.53,0,0,1,1.69-1.69h6.77a1.53,1.53,0,0,1,1.69,1.69v1.4C184.76,27.22,187.64,25.53,192,25.53ZM237.1,13a1.53,1.53,0,0,1,1.69,1.69v7a1.53,1.53,0,0,1-1.69,1.69H228V58.63a1.54,1.54,0,0,1-1.7,1.69h-7.44a1.53,1.53,0,0,1-1.69-1.69V23.37H208a1.53,1.53,0,0,1-1.69-1.69v-7A1.53,1.53,0,0,1,208,13h29.1Zm23.28,13c1.15-.2,1.76.54,1.76,1.62v8c0,1.08-.47,1.62-1.35,1.62-3.79-.13-7.45,1.76-7.45,7.18V58.62a1.54,1.54,0,0,1-1.69,1.7h-6.77a1.54,1.54,0,0,1-1.69-1.7V28.17a1.53,1.53,0,0,1,1.69-1.69h6.77a1.53,1.53,0,0,1,1.69,1.69v3.66A8.22,8.22,0,0,1,260.38,25.94Zm20.17-.41c7.44,0,14.07,4.34,14.07,13.47V58.63a1.53,1.53,0,0,1-1.69,1.69h-6.5a1.53,1.53,0,0,1-1.69-1.69v-1c-1.81,2.12-4.48,3.6-8.73,3.6-5.95,0-11.16-3.51-11.16-10.55S270.06,40.15,276,40.15a13.75,13.75,0,0,1,8.73,2.58v-3c0-3.32-1.35-4.81-4.19-4.81-2.1,0-3.39.81-3.93,2-.4.94-.74,1.48-1.76,1.48h-6.63a1.52,1.52,0,0,1-1.69-1.76c.88-7.3,7.1-11,14-11Zm-.95,28.56c3.31,0,5.14-1.42,5.14-3.38s-1.83-3.39-5.14-3.39c-3.11,0-4.6,1.43-4.6,3.39S276.49,54.09,279.6,54.09Zm53-6.63c1.15,0,1.83.74,1.42,1.89a17,17,0,0,1-16.64,11.91A17.53,17.53,0,0,1,299.49,43.4a17.54,17.54,0,0,1,17.94-17.87,17,17,0,0,1,16.64,11.91c.41,1.15-.27,1.9-1.42,1.9h-7.44a2.39,2.39,0,0,1-2-1.15,6.91,6.91,0,0,0-5.75-2.64,7.56,7.56,0,0,0-7.79,7.85,7.56,7.56,0,0,0,7.79,7.85,7.06,7.06,0,0,0,5.75-2.57,2.23,2.23,0,0,1,2-1.22Zm37,10.83c.81,1.15.34,2-1,2h-7.72a2.24,2.24,0,0,1-2-1.09l-9.4-13.75V58.63a1.54,1.54,0,0,1-1.7,1.69H341a1.54,1.54,0,0,1-1.7-1.69v-44A1.54,1.54,0,0,1,341,13h6.76a1.54,1.54,0,0,1,1.7,1.69V41.18l8.73-13.62a2.24,2.24,0,0,1,2-1.08H368c1.35,0,1.82.88,1.08,2L359.11,43.4Z" transform="translate(0 0)"/></g></svg>